{
    "asset" : {
        "generator" : "Khronos glTF Blender I/O v3.3.27",
        "version" : "2.0"
    },
    "scene" : 0,
    "scenes" : [
        {
            "name" : "Scene",
            "nodes" : [
                34
            ]
        }
    ],
    "nodes" : [
        {
            "name" : "toe.R",
            "rotation" : [
                0.2055133879184723,
                -0.0025403634645044804,
                -0.012096697464585304,
                0.9785763621330261
            ],
            "scale" : [
                1.0000001192092896,
                0.9999998807907104,
                1
            ],
            "translation" : [
                -4.644971340894699e-08,
                0.3389846086502075,
                -8.032313303374394e-08
            ]
        },
        {
            "children" : [
                0
            ],
            "name" : "foot.R",
            "rotation" : [
                0.5056443810462952,
                0.0014490268658846617,
                0.023798296228051186,
                0.8624125123023987
            ],
            "scale" : [
                0.9999999403953552,
                0.9999998807907104,
                0.9999999403953552
            ],
            "translation" : [
                0,
                0.2751995623111725,
                6.31699990094603e-08
            ]
        },
        {
            "children" : [
                1
            ],
            "name" : "shin.R",
            "rotation" : [
                -0.7453914880752563,
                -0.011350741609930992,
                -0.010149008594453335,
                0.6664531230926514
            ],
            "scale" : [
                1,
                0.9999999403953552,
                0.9999999403953552
            ],
            "translation" : [
                8.735220546896016e-09,
                0.33333534002304077,
                -1.2576922614471187e-08
            ]
        },
        {
            "children" : [
                2
            ],
            "name" : "thigh.R",
            "rotation" : [
                0.6713765859603882,
                -8.182034605397348e-08,
                2.614040397475037e-07,
                0.7411163449287415
            ],
            "scale" : [
                1,
                1.0000001192092896,
                1
            ],
            "translation" : [
                -2.3945915472722845e-08,
                0.23248842358589172,
                3.551910765509092e-09
            ]
        },
        {
            "children" : [
                3
            ],
            "name" : "shoulder.R",
            "rotation" : [
                -0.2993939518928528,
                2.399743834757828e-07,
                -2.0965218539004127e-07,
                0.9541295766830444
            ],
            "translation" : [
                0.12700870633125305,
                0.011072798632085323,
                -0.042014144361019135
            ]
        },
        {
            "name" : "spine",
            "rotation" : [
                -0.19483189284801483,
                2.9366251652618303e-08,
                -1.0773614889103555e-07,
                0.9808367490768433
            ],
            "translation" : [
                6.370591716913648e-14,
                0.10402277112007141,
                -2.9802322387695312e-08
            ]
        },
        {
            "children" : [
                5
            ],
            "name" : "spine.001",
            "rotation" : [
                0.005318001843988895,
                1.0882204293238829e-07,
                2.202763971226318e-09,
                0.9999858736991882
            ],
            "translation" : [
                8.886436101947573e-15,
                0.16151274740695953,
                -1.4901161193847656e-08
            ]
        },
        {
            "children" : [
                6
            ],
            "name" : "spine.002",
            "rotation" : [
                -0.49260058999061584,
                1.6513040179688687e-07,
                -1.9394299499708723e-07,
                0.8702556490898132
            ],
            "scale" : [
                1,
                0.9999999403953552,
                1
            ],
            "translation" : [
                6.6874634718772086e-09,
                0.0019914060831069946,
                -0.10211699455976486
            ]
        },
        {
            "name" : "front_toe.R",
            "rotation" : [
                0.3612324893474579,
                0.00021034500969108194,
                0.0005432311445474625,
                0.9324756264686584
            ],
            "scale" : [
                1,
                1,
                0.9999999403953552
            ],
            "translation" : [
                3.2650859793648124e-09,
                0.27555468678474426,
                -7.988168704287091e-08
            ]
        },
        {
            "children" : [
                8
            ],
            "name" : "front_foot.R",
            "rotation" : [
                -0.2070452719926834,
                -4.570456439978443e-06,
                -0.0011180521687492728,
                0.9783307313919067
            ],
            "scale" : [
                1.0000001192092896,
                1.0000001192092896,
                1.0000001192092896
            ],
            "translation" : [
                -1.3737007975578308e-08,
                0.2863931357860565,
                1.7228208548658586e-07
            ]
        },
        {
            "children" : [
                9
            ],
            "name" : "front_shin.R",
            "rotation" : [
                0.5783534049987793,
                -0.0003240391379222274,
                0.00045741055510006845,
                0.8157861232757568
            ],
            "scale" : [
                0.9999999403953552,
                0.9999999403953552,
                1
            ],
            "translation" : [
                1.9534915907115646e-09,
                0.22862312197685242,
                5.924950841063037e-08
            ]
        },
        {
            "children" : [
                10
            ],
            "name" : "front_thigh.R",
            "rotation" : [
                -0.612846314907074,
                2.090318140801628e-08,
                -3.206119174592459e-07,
                0.7902021408081055
            ],
            "translation" : [
                -1.621388889816444e-08,
                0.308199405670166,
                5.878719022689438e-08
            ]
        },
        {
            "children" : [
                11
            ],
            "name" : "front_shoulder.R",
            "rotation" : [
                -0.6208998560905457,
                1.14329999689744e-07,
                -1.984953570399739e-07,
                0.783889889717102
            ],
            "translation" : [
                0.12234223634004593,
                0.1524331122636795,
                0.02097289264202118
            ]
        },
        {
            "name" : "ear.R",
            "rotation" : [
                0.8044391870498657,
                -0.32098841667175293,
                0.18438638746738434,
                0.46459197998046875
            ],
            "scale" : [
                0.9999999403953552,
                0.9999999403953552,
                0.9999998211860657
            ],
            "translation" : [
                0.11673756688833237,
                0.08603018522262573,
                -0.08306559920310974
            ]
        },
        {
            "name" : "ear.L",
            "rotation" : [
                0.8044391870498657,
                0.32098862528800964,
                -0.18438652157783508,
                0.4645918011665344
            ],
            "scale" : [
                1,
                1.0000001192092896,
                0.9999999403953552
            ],
            "translation" : [
                -0.11673751473426819,
                0.08603024482727051,
                -0.08306512236595154
            ]
        },
        {
            "children" : [
                13,
                14
            ],
            "name" : "scull",
            "rotation" : [
                0.8730826377868652,
                -1.180355511110065e-07,
                -3.2019533691141078e-09,
                0.4875722825527191
            ],
            "translation" : [
                -3.825891291059022e-14,
                0.14277374744415283,
                0
            ]
        },
        {
            "children" : [
                15
            ],
            "name" : "spine.008",
            "rotation" : [
                -0.18805523216724396,
                -3.216955235529895e-08,
                -5.099588662460519e-08,
                0.9821584820747375
            ],
            "scale" : [
                1,
                0.9999998807907104,
                1
            ],
            "translation" : [
                1.3267896980737048e-14,
                0.16204982995986938,
                8.195638656616211e-08
            ]
        },
        {
            "children" : [
                16
            ],
            "name" : "spine.007",
            "rotation" : [
                0.20191290974617004,
                2.499735174410489e-08,
                5.6213732335663735e-08,
                0.9794034957885742
            ],
            "scale" : [
                1,
                1.0000001192092896,
                1
            ],
            "translation" : [
                5.5148519485879316e-15,
                0.2120896875858307,
                -2.9802322387695312e-08
            ]
        },
        {
            "children" : [
                17
            ],
            "name" : "spine.006",
            "rotation" : [
                0.24237260222434998,
                6.790765727515691e-09,
                5.959535798183424e-08,
                0.970183253288269
            ],
            "scale" : [
                1,
                1.0000001192092896,
                1
            ],
            "translation" : [
                1.5118972740424397e-08,
                0.22319865226745605,
                -0.06329014897346497
            ]
        },
        {
            "name" : "front_toe.L",
            "rotation" : [
                0.3612325191497803,
                -0.00021033814118709415,
                -0.0005432288162410259,
                0.9324756264686584
            ],
            "translation" : [
                -3.2614480005577207e-09,
                0.2755546569824219,
                -5.2906258929397154e-08
            ]
        },
        {
            "children" : [
                19
            ],
            "name" : "front_foot.L",
            "rotation" : [
                -0.2070453017950058,
                4.5704709918936715e-06,
                0.0011180524015799165,
                0.9783307313919067
            ],
            "scale" : [
                1.0000001192092896,
                1.0000001192092896,
                1.0000001192092896
            ],
            "translation" : [
                -1.280568540096283e-09,
                0.2863931655883789,
                1.4244780288663605e-07
            ]
        },
        {
            "children" : [
                20
            ],
            "name" : "front_shin.L",
            "rotation" : [
                0.5783534646034241,
                0.0003240907099097967,
                -0.0004574471095111221,
                0.8157861232757568
            ],
            "scale" : [
                0.9999999403953552,
                1,
                0.9999999403953552
            ],
            "translation" : [
                -4.4867434212392254e-09,
                0.22862312197685242,
                5.236378797235375e-08
            ]
        },
        {
            "children" : [
                21
            ],
            "name" : "front_thigh.L",
            "rotation" : [
                -0.612846314907074,
                -3.2000738059423384e-08,
                3.0942641160436324e-07,
                0.7902021408081055
            ],
            "translation" : [
                1.3194146220030234e-08,
                0.308199405670166,
                5.879628162119843e-08
            ]
        },
        {
            "children" : [
                22
            ],
            "name" : "front_shoulder.L",
            "rotation" : [
                -0.6208998560905457,
                -2.6236946837343567e-07,
                9.987896731900037e-08,
                0.783889889717102
            ],
            "translation" : [
                -0.12234222143888474,
                0.1524331122636795,
                0.020972833037376404
            ]
        },
        {
            "children" : [
                12,
                18,
                23
            ],
            "name" : "spine.005",
            "rotation" : [
                0.10445867478847504,
                -3.4313265562246897e-09,
                2.5313902085599693e-08,
                0.9945292472839355
            ],
            "translation" : [
                4.1588809490417794e-14,
                0.19384202361106873,
                -3.213062882423401e-08
            ]
        },
        {
            "children" : [
                24
            ],
            "name" : "spine.004",
            "rotation" : [
                0.7312357425689697,
                -2.409204036268875e-08,
                3.0791269978180935e-08,
                0.6821248531341553
            ],
            "translation" : [
                -1.0803786310020769e-08,
                3.175809979438782e-07,
                0.17758110165596008
            ]
        },
        {
            "name" : "toe.L",
            "rotation" : [
                0.2055133879184723,
                0.0025403634645044804,
                0.01209669467061758,
                0.9785763621330261
            ],
            "scale" : [
                1,
                0.9999998807907104,
                0.9999999403953552
            ],
            "translation" : [
                3.213062882423401e-08,
                0.33898457884788513,
                -7.307954774660175e-08
            ]
        },
        {
            "children" : [
                26
            ],
            "name" : "foot.L",
            "rotation" : [
                0.5056445002555847,
                -0.0014490432804450393,
                -0.023798296228051186,
                0.8624125719070435
            ],
            "scale" : [
                0.9999998807907104,
                1,
                0.9999998807907104
            ],
            "translation" : [
                6.51925802230835e-09,
                0.2751995921134949,
                5.913517853173289e-08
            ]
        },
        {
            "children" : [
                27
            ],
            "name" : "shin.L",
            "rotation" : [
                -0.7453914880752563,
                0.011350749060511589,
                0.01014899555593729,
                0.6664530634880066
            ],
            "scale" : [
                1,
                0.9999998807907104,
                0.9999999403953552
            ],
            "translation" : [
                1.730577636749331e-08,
                0.3333353102207184,
                3.027379946729525e-08
            ]
        },
        {
            "children" : [
                28
            ],
            "name" : "thigh.L",
            "rotation" : [
                0.6713767051696777,
                1.0129866723218584e-07,
                -2.3433595686128683e-07,
                0.7411163449287415
            ],
            "scale" : [
                1,
                1,
                0.9999999403953552
            ],
            "translation" : [
                -3.93726224956481e-08,
                0.23248866200447083,
                -5.72014826616396e-08
            ]
        },
        {
            "children" : [
                29
            ],
            "name" : "shoulder.L",
            "rotation" : [
                -0.29939401149749756,
                -2.301627830547659e-07,
                -6.212893310930667e-08,
                0.9541295766830444
            ],
            "translation" : [
                -0.12700866162776947,
                0.011072852648794651,
                -0.042014069855213165
            ]
        },
        {
            "children" : [
                4,
                7,
                25,
                30
            ],
            "name" : "spine.003",
            "rotation" : [
                0.9989297389984131,
                -1.1802397636984097e-07,
                4.349026383465571e-08,
                0.04625329002737999
            ],
            "scale" : [
                1,
                0.9999999403953552,
                1.0000181198120117
            ],
            "translation" : [
                -4.001828202149227e-09,
                1.0277032852172852,
                0.26415586471557617
            ]
        },
        {
            "children" : [
                31
            ],
            "name" : "Root",
            "rotation" : [
                6.339203650895797e-08,
                7.574776361707336e-09,
                5.088690720462098e-16,
                1
            ]
        },
        {
            "mesh" : 0,
            "name" : "deer_001",
            "skin" : 0
        },
        {
            "children" : [
                33,
                32
            ],
            "name" : "deer"
        }
    ],
    "materials" : [
        {
            "doubleSided" : true,
            "name" : "material.001",
            "pbrMetallicRoughness" : {
                "baseColorTexture" : {
                    "index" : 0
                },
                "metallicFactor" : 0,
                "roughnessFactor" : 0.5527864098548889
            }
        }
    ],
    "meshes" : [
        {
            "name" : "Mesh.045",
            "primitives" : [
                {
                    "attributes" : {
                        "POSITION" : 0,
                        "NORMAL" : 1,
                        "TEXCOORD_0" : 2,
                        "JOINTS_0" : 3,
                        "WEIGHTS_0" : 4
                    },
                    "indices" : 5,
                    "material" : 0
                }
            ]
        }
    ],
    "textures" : [
        {
            "sampler" : 0,
            "source" : 0
        }
    ],
    "images" : [
        {
            "mimeType" : "image/png",
            "name" : "Texture_1",
            "uri" : "Texture_1.png"
        }
    ],
    "skins" : [
        {
            "inverseBindMatrices" : 6,
            "joints" : [
                32,
                31,
                4,
                3,
                2,
                1,
                0,
                7,
                6,
                5,
                25,
                24,
                12,
                11,
                10,
                9,
                8,
                18,
                17,
                16,
                15,
                13,
                14,
                23,
                22,
                21,
                20,
                19,
                30,
                29,
                28,
                27,
                26
            ],
            "name" : "deer"
        }
    ],
    "accessors" : [
        {
            "bufferView" : 0,
            "componentType" : 5126,
            "count" : 3499,
            "max" : [
                0.5310455560684204,
                1.9672406911849976,
                0.7087447643280029
            ],
            "min" : [
                -0.5310467481613159,
                -4.380669054171449e-07,
                -0.9709495306015015
            ],
            "type" : "VEC3"
        },
        {
            "bufferView" : 1,
            "componentType" : 5126,
            "count" : 3499,
            "type" : "VEC3"
        },
        {
            "bufferView" : 2,
            "componentType" : 5126,
            "count" : 3499,
            "type" : "VEC2"
        },
        {
            "bufferView" : 3,
            "componentType" : 5121,
            "count" : 3499,
            "type" : "VEC4"
        },
        {
            "bufferView" : 4,
            "componentType" : 5126,
            "count" : 3499,
            "type" : "VEC4"
        },
        {
            "bufferView" : 5,
            "componentType" : 5123,
            "count" : 5742,
            "type" : "SCALAR"
        },
        {
            "bufferView" : 6,
            "componentType" : 5126,
            "count" : 33,
            "type" : "MAT4"
        }
    ],
    "bufferViews" : [
        {
            "buffer" : 0,
            "byteLength" : 41988,
            "byteOffset" : 0,
            "target" : 34962
        },
        {
            "buffer" : 0,
            "byteLength" : 41988,
            "byteOffset" : 41988,
            "target" : 34962
        },
        {
            "buffer" : 0,
            "byteLength" : 27992,
            "byteOffset" : 83976,
            "target" : 34962
        },
        {
            "buffer" : 0,
            "byteLength" : 13996,
            "byteOffset" : 111968,
            "target" : 34962
        },
        {
            "buffer" : 0,
            "byteLength" : 55984,
            "byteOffset" : 125964,
            "target" : 34962
        },
        {
            "buffer" : 0,
            "byteLength" : 11484,
            "byteOffset" : 181948,
            "target" : 34963
        },
        {
            "buffer" : 0,
            "byteLength" : 2112,
            "byteOffset" : 193432
        }
    ],
    "samplers" : [
        {
            "magFilter" : 9729,
            "minFilter" : 9987
        }
    ],
    "buffers" : [
        {
            "byteLength" : 195544,
            "uri" : "deer.bin"
        }
    ]
}
