{
    "asset" : {
        "generator" : "Khronos glTF Blender I/O v3.3.27",
        "version" : "2.0"
    },
    "scene" : 0,
    "scenes" : [
        {
            "name" : "Scene",
            "nodes" : [
                27
            ]
        }
    ],
    "nodes" : [
        {
            "name" : "scull",
            "rotation" : [
                -0.6235412955284119,
                2.686448841160427e-09,
                1.510964438011797e-07,
                0.7817904353141785
            ],
            "scale" : [
                1,
                0.9999999403953552,
                1
            ],
            "translation" : [
                -4.999107139531944e-15,
                0.04886326938867569,
                -2.2351741790771484e-08
            ]
        },
        {
            "children" : [
                0
            ],
            "name" : "spine.007",
            "rotation" : [
                -0.056183941662311554,
                5.514111833804236e-09,
                1.4117847335626266e-08,
                0.9984204769134521
            ],
            "translation" : [
                4.466008319452611e-15,
                0.044334977865219116,
                7.450580596923828e-09
            ]
        },
        {
            "children" : [
                1
            ],
            "name" : "spine.006",
            "rotation" : [
                0.024126576259732246,
                -5.521232360194972e-09,
                -6.062504720460993e-09,
                0.9997090101242065
            ],
            "translation" : [
                4.840030963905798e-16,
                0.056731563061475754,
                7.450580596923828e-09
            ]
        },
        {
            "children" : [
                2
            ],
            "name" : "spine.005",
            "rotation" : [
                0.4425860047340393,
                8.072472135189912e-10,
                -1.0916665615923193e-07,
                0.8967260718345642
            ],
            "scale" : [
                1,
                1,
                1.0000001192092896
            ],
            "translation" : [
                2.1668673189849212e-14,
                0.07203518599271774,
                7.636845111846924e-08
            ]
        },
        {
            "name" : "Wing.002.R",
            "rotation" : [
                0.001855564652942121,
                -0.06631539016962051,
                0.12836885452270508,
                0.9895050525665283
            ],
            "scale" : [
                1,
                1,
                0.9999999403953552
            ],
            "translation" : [
                4.889443516731262e-09,
                0.0736839771270752,
                1.0943040251731873e-08
            ]
        },
        {
            "children" : [
                4
            ],
            "name" : "Wing.001.R",
            "rotation" : [
                -0.16453485190868378,
                0.06674214452505112,
                0.2698498070240021,
                0.9463904500007629
            ],
            "translation" : [
                8.847564458847046e-09,
                0.10171863436698914,
                2.444721758365631e-08
            ]
        },
        {
            "children" : [
                5
            ],
            "name" : "Wing.R",
            "rotation" : [
                -0.8779856562614441,
                -0.2602708637714386,
                0.00552919739857316,
                0.4017085134983063
            ],
            "scale" : [
                1,
                1,
                0.9999998807907104
            ],
            "translation" : [
                0.021004898473620415,
                0.04755135625600815,
                0.024274792522192
            ]
        },
        {
            "children" : [
                6
            ],
            "name" : "shoulder.R",
            "rotation" : [
                -0.32092785835266113,
                -2.2625640383466816e-07,
                1.4522552760354301e-07,
                0.94710373878479
            ],
            "scale" : [
                1,
                1.0000001192092896,
                1
            ],
            "translation" : [
                0.04175757244229317,
                0.026836836710572243,
                -0.0008187723578885198
            ]
        },
        {
            "name" : "Wing.002.L",
            "rotation" : [
                0.001855535083450377,
                0.06631525605916977,
                -0.12836889922618866,
                0.9895051121711731
            ],
            "scale" : [
                0.9999999403953552,
                1,
                0.9999999403953552
            ],
            "translation" : [
                -1.0244548320770264e-08,
                0.07368403673171997,
                -3.9814040064811707e-08
            ]
        },
        {
            "children" : [
                8
            ],
            "name" : "Wing.001.L",
            "rotation" : [
                -0.16453462839126587,
                -0.06674287468194962,
                -0.26984989643096924,
                0.9463903903961182
            ],
            "scale" : [
                0.9999998807907104,
                1.0000001192092896,
                0.9999999403953552
            ],
            "translation" : [
                2.3515895009040833e-08,
                0.10171869397163391,
                4.3655745685100555e-08
            ]
        },
        {
            "children" : [
                9
            ],
            "name" : "Wing.L",
            "rotation" : [
                -0.8779855370521545,
                0.26027119159698486,
                -0.005529852118343115,
                0.40170854330062866
            ],
            "scale" : [
                0.9999999403953552,
                0.9999997615814209,
                0.9999998211860657
            ],
            "translation" : [
                -0.021004876121878624,
                0.04755137115716934,
                0.02427494525909424
            ]
        },
        {
            "children" : [
                10
            ],
            "name" : "shoulder.L",
            "rotation" : [
                -0.32092800736427307,
                4.538055975444877e-07,
                -8.521485028722964e-08,
                0.9471036791801453
            ],
            "translation" : [
                -0.04175758734345436,
                0.026836838573217392,
                -0.0008187525672838092
            ]
        },
        {
            "children" : [
                3,
                7,
                11
            ],
            "name" : "spine.004",
            "rotation" : [
                0.0035067640710622072,
                8.881839254142824e-15,
                -8.681174668012659e-10,
                0.9999938607215881
            ],
            "scale" : [
                1,
                1,
                0.9999999403953552
            ],
            "translation" : [
                -5.5340474092386086e-15,
                0.07870923727750778,
                -4.5925844460725784e-08
            ]
        },
        {
            "children" : [
                12
            ],
            "name" : "spine.003",
            "rotation" : [
                0.028285548090934753,
                -4.0872561818351347e-14,
                -7.00227209549098e-09,
                0.9995998740196228
            ],
            "translation" : [
                1.2365475702028842e-14,
                0.07803938537836075,
                3.166496753692627e-08
            ]
        },
        {
            "name" : "toe.R",
            "rotation" : [
                0.587493360042572,
                1.1245384179403572e-08,
                -1.5254404672759847e-07,
                0.8092290163040161
            ],
            "translation" : [
                1.7143767516714092e-09,
                0.04787159338593483,
                2.7068018937370653e-09
            ]
        },
        {
            "children" : [
                14
            ],
            "name" : "foot.R",
            "rotation" : [
                0.04622501879930496,
                1.018400226371341e-07,
                -1.8318850436571665e-08,
                0.9989310503005981
            ],
            "translation" : [
                1.0978498110603141e-08,
                0.04972647503018379,
                -3.3059670556667697e-09
            ]
        },
        {
            "children" : [
                15
            ],
            "name" : "shin.R",
            "rotation" : [
                -0.0667838454246521,
                0.0020881365053355694,
                -0.006423477083444595,
                0.997744619846344
            ],
            "scale" : [
                1,
                0.9999999403953552,
                1
            ],
            "translation" : [
                1.9208528101444244e-09,
                0.0857933759689331,
                -8.60018189996481e-09
            ]
        },
        {
            "children" : [
                16
            ],
            "name" : "thigh.R",
            "rotation" : [
                -0.7380331754684448,
                0.0037167835980653763,
                0.005640014074742794,
                0.6747305989265442
            ],
            "scale" : [
                1,
                0.9999999403953552,
                1
            ],
            "translation" : [
                0.07052294164896011,
                0.04718144237995148,
                -0.07688099890947342
            ]
        },
        {
            "name" : "spine",
            "rotation" : [
                -0.09641783684492111,
                4.547775489527339e-09,
                -3.71060053794281e-08,
                0.9953409433364868
            ],
            "scale" : [
                1,
                0.9999999403953552,
                1
            ],
            "translation" : [
                5.890876978928428e-16,
                0.09075522422790527,
                -3.725290298461914e-09
            ]
        },
        {
            "children" : [
                18
            ],
            "name" : "spine.001",
            "rotation" : [
                5.476577413787709e-08,
                -0.5647191405296326,
                -0.8252831697463989,
                1.7727464296513062e-07
            ],
            "scale" : [
                1,
                1.000000238418579,
                1.0000001192092896
            ],
            "translation" : [
                2.089192596699263e-09,
                -0.012952983379364014,
                0.008439205586910248
            ]
        },
        {
            "name" : "toe.L",
            "rotation" : [
                0.5874933004379272,
                4.829269579717521e-14,
                1.4438002438055264e-07,
                0.8092290163040161
            ],
            "translation" : [
                -1.0504765945995587e-08,
                0.047871578484773636,
                3.943201321021661e-09
            ]
        },
        {
            "children" : [
                20
            ],
            "name" : "foot.L",
            "rotation" : [
                0.046224985271692276,
                -1.2054999842803227e-07,
                1.658882986532717e-08,
                0.9989310503005981
            ],
            "translation" : [
                4.266384578954785e-09,
                0.0497264601290226,
                1.622503020826116e-09
            ]
        },
        {
            "children" : [
                21
            ],
            "name" : "shin.L",
            "rotation" : [
                -0.06678381562232971,
                -0.0020881362725049257,
                0.006423550192266703,
                0.997744619846344
            ],
            "scale" : [
                0.9999999403953552,
                0.9999998807907104,
                1
            ],
            "translation" : [
                1.6676494851708412e-08,
                0.08579336851835251,
                2.663000486791134e-09
            ]
        },
        {
            "children" : [
                22
            ],
            "name" : "thigh.L",
            "rotation" : [
                -0.7380330562591553,
                -0.003716668812558055,
                -0.005639880429953337,
                0.6747307777404785
            ],
            "translation" : [
                -0.07052299380302429,
                0.047181449830532074,
                -0.07688093185424805
            ]
        },
        {
            "children" : [
                13,
                17,
                19,
                23
            ],
            "name" : "spine.002",
            "rotation" : [
                -0.5938535928726196,
                -1.0568315644832182e-07,
                6.900788918073886e-08,
                0.804573118686676
            ],
            "translation" : [
                -2.2591233328483895e-09,
                0.2569911479949951,
                0.1491214483976364
            ]
        },
        {
            "children" : [
                24
            ],
            "name" : "Root",
            "rotation" : [
                6.339203650895797e-08,
                7.574776361707336e-09,
                5.088690720462098e-16,
                1
            ]
        },
        {
            "mesh" : 0,
            "name" : "chicken_001",
            "skin" : 0
        },
        {
            "children" : [
                26,
                25
            ],
            "name" : "chicken.001"
        }
    ],
    "materials" : [
        {
            "doubleSided" : true,
            "name" : "material",
            "pbrMetallicRoughness" : {
                "baseColorTexture" : {
                    "index" : 0
                },
                "metallicFactor" : 0,
                "roughnessFactor" : 0.5527864098548889
            }
        }
    ],
    "meshes" : [
        {
            "name" : "Mesh.110",
            "primitives" : [
                {
                    "attributes" : {
                        "POSITION" : 0,
                        "NORMAL" : 1,
                        "TEXCOORD_0" : 2,
                        "COLOR_0" : 3,
                        "JOINTS_0" : 4,
                        "WEIGHTS_0" : 5
                    },
                    "indices" : 6,
                    "material" : 0
                }
            ]
        }
    ],
    "textures" : [
        {
            "sampler" : 0,
            "source" : 0
        }
    ],
    "images" : [
        {
            "mimeType" : "image/png",
            "name" : "Texture_1",
            "uri" : "Texture_1.png"
        }
    ],
    "skins" : [
        {
            "inverseBindMatrices" : 7,
            "joints" : [
                25,
                24,
                13,
                12,
                3,
                2,
                1,
                0,
                7,
                6,
                5,
                4,
                11,
                10,
                9,
                8,
                17,
                16,
                15,
                14,
                19,
                18,
                23,
                22,
                21,
                20
            ],
            "name" : "chicken.001"
        }
    ],
    "accessors" : [
        {
            "bufferView" : 0,
            "componentType" : 5126,
            "count" : 745,
            "max" : [
                0.1337740272283554,
                0.5199487805366516,
                0.30702880024909973
            ],
            "min" : [
                -0.13377399742603302,
                -3.4076238080160692e-06,
                -0.18159089982509613
            ],
            "type" : "VEC3"
        },
        {
            "bufferView" : 1,
            "componentType" : 5126,
            "count" : 745,
            "type" : "VEC3"
        },
        {
            "bufferView" : 2,
            "componentType" : 5126,
            "count" : 745,
            "type" : "VEC2"
        },
        {
            "bufferView" : 3,
            "componentType" : 5123,
            "count" : 745,
            "normalized" : true,
            "type" : "VEC4"
        },
        {
            "bufferView" : 4,
            "componentType" : 5121,
            "count" : 745,
            "type" : "VEC4"
        },
        {
            "bufferView" : 5,
            "componentType" : 5126,
            "count" : 745,
            "type" : "VEC4"
        },
        {
            "bufferView" : 6,
            "componentType" : 5123,
            "count" : 2928,
            "type" : "SCALAR"
        },
        {
            "bufferView" : 7,
            "componentType" : 5126,
            "count" : 26,
            "type" : "MAT4"
        }
    ],
    "bufferViews" : [
        {
            "buffer" : 0,
            "byteLength" : 8940,
            "byteOffset" : 0,
            "target" : 34962
        },
        {
            "buffer" : 0,
            "byteLength" : 8940,
            "byteOffset" : 8940,
            "target" : 34962
        },
        {
            "buffer" : 0,
            "byteLength" : 5960,
            "byteOffset" : 17880,
            "target" : 34962
        },
        {
            "buffer" : 0,
            "byteLength" : 5960,
            "byteOffset" : 23840,
            "target" : 34962
        },
        {
            "buffer" : 0,
            "byteLength" : 2980,
            "byteOffset" : 29800,
            "target" : 34962
        },
        {
            "buffer" : 0,
            "byteLength" : 11920,
            "byteOffset" : 32780,
            "target" : 34962
        },
        {
            "buffer" : 0,
            "byteLength" : 5856,
            "byteOffset" : 44700,
            "target" : 34963
        },
        {
            "buffer" : 0,
            "byteLength" : 1664,
            "byteOffset" : 50556
        }
    ],
    "samplers" : [
        {
            "magFilter" : 9729,
            "minFilter" : 9987
        }
    ],
    "buffers" : [
        {
            "byteLength" : 52220,
            "uri" : "chicken.bin"
        }
    ]
}
